<svg width="249" height="98" viewBox="0 0 249 98" fill="none" xmlns="http://www.w3.org/2000/svg">
<path d="M219.894 63.8249C220.327 63.1167 221.076 61.8773 221.865 60.146C222.633 58.4148 223.441 56.172 223.954 53.5358C224.013 53.2014 224.072 52.8669 224.131 52.5325C224.17 52.198 224.21 51.8439 224.269 51.4898C224.289 51.3127 224.308 51.1357 224.348 50.9586C224.367 50.7816 224.367 50.6045 224.387 50.4274C224.407 50.0733 224.446 49.6995 224.466 49.3454C224.525 47.8699 224.486 46.3354 224.348 44.7812C224.19 43.227 223.894 41.6335 223.461 40.0793C223.047 38.5054 222.495 36.9513 221.786 35.4561C220.406 32.4658 218.554 29.6918 216.386 27.4097C215.322 26.2687 214.179 25.2063 213.016 24.321C211.853 23.4161 210.69 22.6095 209.527 21.9602C207.222 20.6028 204.995 19.7568 203.162 19.206C202.925 19.147 202.709 19.0683 202.492 19.0093C202.275 18.9502 202.078 18.8715 201.861 18.8322C201.447 18.7338 201.073 18.6551 200.738 18.5764C200.048 18.4387 199.476 18.3404 199.082 18.2617C199.437 17.9076 199.811 17.5338 200.206 17.1796C200.58 16.8255 200.994 16.4517 201.388 16.1173C201.802 15.7828 202.216 15.4287 202.63 15.0943C202.846 14.9369 203.063 14.7598 203.28 14.6024L203.95 14.1303L203.615 13.3827C203.497 13.127 203.379 12.8909 203.26 12.6548C203.024 12.163 202.768 11.6711 202.492 11.1793C202.236 10.6875 201.94 10.2153 201.644 9.74315C201.349 9.27099 201.033 8.77916 200.718 8.30701C201.27 8.40537 202.019 8.52341 202.925 8.72015C203.379 8.81851 203.891 8.93655 204.423 9.07426C204.955 9.21198 205.546 9.38903 206.157 9.56609C208.601 10.3137 211.577 11.4547 214.671 13.2647C216.228 14.15 217.785 15.232 219.342 16.4321C220.899 17.6321 222.397 19.0289 223.835 20.5634C225.254 22.098 226.634 23.7702 227.816 25.5801C229.019 27.3901 230.102 29.318 231.009 31.305C231.226 31.8165 231.462 32.3084 231.659 32.8199C231.856 33.3314 232.054 33.8429 232.251 34.3544C232.428 34.8659 232.605 35.3971 232.763 35.9086L232.901 36.302L233.019 36.6955C233.098 36.9513 233.157 37.2267 233.236 37.4824C233.788 39.5875 234.202 41.7122 234.418 43.7976C234.616 45.8829 234.675 47.9289 234.576 49.8963C234.556 50.3881 234.497 50.8799 234.458 51.3521C234.438 51.5882 234.418 51.8242 234.399 52.0603C234.359 52.2964 234.34 52.5325 234.3 52.7686C234.241 53.2407 234.182 53.6932 234.123 54.1457C234.044 54.5982 233.965 55.0507 233.886 55.4835C233.216 58.9853 232.132 61.9953 231.108 64.3168C230.063 66.6382 229.058 68.2907 228.467 69.2351C226.2 69.6679 223.973 69.8843 221.805 69.904C221.332 67.7399 220.702 65.7136 219.894 63.8249Z" fill="#B7860F"/>
<path d="M195.969 17.9074C195.614 17.9074 195.102 17.8877 194.491 17.8681C194.175 17.8681 193.84 17.8877 193.486 17.8877C193.308 17.8877 193.111 17.8877 192.914 17.9074C192.717 17.9271 192.52 17.9467 192.303 17.9467C190.628 18.0648 188.559 18.3599 186.312 18.9894C185.74 19.1271 185.169 19.3435 184.578 19.5206L184.361 19.5993L184.144 19.678C184.006 19.737 183.849 19.796 183.711 19.855C183.573 19.9141 183.415 19.9731 183.257 20.0321C183.1 20.0911 182.962 20.1501 182.804 20.2092C182.508 20.3469 182.213 20.4649 181.917 20.6026L181.681 20.701L181.464 20.819C181.306 20.8977 181.168 20.9764 181.011 21.0354C180.4 21.3305 179.828 21.665 179.217 21.9994C178.035 22.7077 176.852 23.4946 175.729 24.3799C174.625 25.2849 173.541 26.2488 172.536 27.2915C172.398 27.4096 172.28 27.5473 172.162 27.685L171.807 28.0981L171.452 28.4916C171.334 28.6293 171.216 28.767 171.117 28.9047C170.9 29.1802 170.664 29.4556 170.447 29.7507C170.23 30.0458 170.033 30.3409 169.817 30.6163L169.659 30.8327L169.521 31.0491L169.225 31.5016C169.028 31.7967 168.831 32.0918 168.654 32.4066C168.476 32.7017 168.299 33.0165 168.122 33.3116C167.964 33.6263 167.806 33.9214 167.649 34.2362C167.57 34.3936 167.491 34.5313 167.412 34.6887C167.333 34.8461 167.274 35.0034 167.195 35.1608C167.057 35.4756 166.9 35.7707 166.781 36.0855C166.545 36.715 166.269 37.3052 166.072 37.9348C165.973 38.2495 165.855 38.5446 165.757 38.8397C165.678 39.1348 165.579 39.4496 165.5 39.7447C165.461 39.9021 165.422 40.0398 165.363 40.1775C165.323 40.3349 165.303 40.4726 165.264 40.63C165.205 40.9251 165.126 41.2202 165.067 41.4956C164.555 43.7974 164.397 45.8828 164.377 47.555C164.357 49.2272 164.476 50.4863 164.555 51.2142C162.741 50.3683 160.968 49.3452 159.273 48.1255C157.598 49.3452 156.001 50.7224 154.484 52.2569C154.385 51.2929 154.228 49.601 154.247 47.3779C154.267 45.1549 154.503 42.3612 155.174 39.3119C155.272 38.9381 155.351 38.5446 155.449 38.1512C155.489 37.9544 155.548 37.7577 155.587 37.561C155.627 37.3642 155.706 37.1675 155.765 36.9708C155.883 36.5773 156.001 36.1642 156.12 35.7707C156.257 35.3772 156.395 34.9641 156.533 34.551C156.612 34.3542 156.671 34.1378 156.75 33.9411C156.829 33.7444 156.908 33.528 156.987 33.3312C157.144 32.9181 157.322 32.5049 157.479 32.0918C157.657 31.6787 157.854 31.2655 158.031 30.8524C158.13 30.6557 158.228 30.4393 158.327 30.2229C158.425 30.0261 158.544 29.8097 158.642 29.613C158.859 29.1998 159.076 28.7867 159.293 28.3932C159.529 27.9998 159.765 27.5866 160.002 27.1735C160.238 26.7604 160.495 26.3669 160.751 25.9734C160.889 25.7767 161.007 25.58 161.145 25.3832L161.342 25.0881L161.559 24.793C161.835 24.3996 162.111 24.0258 162.406 23.6323C162.702 23.2585 162.998 22.8847 163.293 22.5109C163.451 22.3142 163.589 22.1371 163.746 21.9601L164.219 21.4092L164.692 20.8584C164.85 20.6813 165.008 20.5043 165.185 20.3272L166.19 19.2845C166.525 18.9501 166.9 18.6156 167.235 18.3009C167.412 18.1435 167.59 17.9664 167.767 17.809L168.319 17.3369L168.871 16.8844C169.048 16.727 169.225 16.5696 169.422 16.4319C169.797 16.1368 170.171 15.8614 170.546 15.5663C170.92 15.2909 171.314 15.0154 171.708 14.7597C171.906 14.622 172.103 14.5039 172.28 14.3662C172.477 14.2482 172.674 14.1105 172.871 13.9924C173.265 13.7563 173.66 13.5006 174.054 13.2645C174.862 12.812 175.65 12.3595 176.458 11.9661C177.246 11.5529 178.074 11.1988 178.862 10.8644C179.257 10.6873 179.67 10.5496 180.045 10.3922C180.439 10.2348 180.833 10.0774 181.227 9.9594C182.016 9.70365 182.784 9.42822 183.533 9.23149C186.568 8.38554 189.327 7.99208 191.574 7.83469C191.85 7.81502 192.126 7.79534 192.382 7.77567C192.638 7.756 192.894 7.756 193.151 7.756C193.643 7.756 194.097 7.73633 194.51 7.73633C195.338 7.756 196.008 7.77567 196.481 7.79535C197.132 8.68064 197.723 9.56594 198.275 10.4512C198.827 11.3759 199.339 12.2809 199.812 13.1858C199.083 13.9334 198.393 14.7007 197.762 15.4679C197.132 16.3139 196.54 17.1008 195.969 17.9074Z" fill="#D9E1ED"/>
<path d="M167.885 61.8968C168.279 62.6247 168.989 63.8838 170.092 65.4577C171.235 66.9922 172.772 68.8021 174.802 70.5727C176.832 72.3236 179.315 74.0155 182.193 75.2943C185.07 76.5534 188.283 77.419 191.574 77.7534L191.889 77.7928L192.204 77.8125L192.815 77.8518C193.229 77.8715 193.643 77.9108 194.057 77.9108C194.471 77.9108 194.885 77.8912 195.279 77.8912H195.89C196.087 77.8912 196.304 77.8518 196.501 77.8518C196.915 77.8125 197.309 77.7928 197.723 77.7534C197.92 77.7534 198.117 77.7141 198.314 77.6748C198.511 77.6354 198.708 77.6157 198.905 77.5764C199.102 77.537 199.299 77.5174 199.496 77.4977C199.693 77.4583 199.891 77.4387 200.088 77.3993C200.482 77.3206 200.856 77.2223 201.25 77.1436C201.447 77.1042 201.625 77.0649 201.822 77.0255C201.999 76.9665 202.196 76.9272 202.374 76.8681C202.748 76.7698 203.123 76.6517 203.477 76.5534C203.655 76.514 203.832 76.4353 204.009 76.3763C204.187 76.3173 204.364 76.2386 204.542 76.1796C204.896 76.0419 205.251 75.9435 205.586 75.8058C205.921 75.6484 206.256 75.5107 206.591 75.373C206.926 75.2156 207.261 75.0976 207.557 74.9205C207.872 74.7631 208.188 74.6057 208.483 74.4483C208.641 74.3696 208.798 74.2909 208.936 74.2123C209.094 74.1336 209.232 74.0352 209.37 73.9565C210.533 73.2876 211.577 72.5794 212.523 71.8908C212.977 71.5367 213.43 71.1826 213.844 70.8481C214.238 70.494 214.612 70.1596 214.967 69.8448C215.046 69.7661 215.144 69.6874 215.223 69.6087C215.302 69.53 215.381 69.4513 215.46 69.3726C215.617 69.2153 215.775 69.0579 215.913 68.9202C216.051 68.7824 216.209 68.6251 216.327 68.4873C216.386 68.4283 216.465 68.3496 216.524 68.2906C216.583 68.2316 216.642 68.1529 216.701 68.0939C217.155 67.5627 217.529 67.1299 217.805 66.8151C218.081 67.7988 218.317 68.8218 218.534 69.8841C218.731 70.9268 218.85 71.9892 218.968 73.0909C220.032 73.1893 221.136 73.2876 222.259 73.3073C223.363 73.3073 224.486 73.2876 225.649 73.2286C225.294 73.6417 224.801 74.2123 224.171 74.9402C224.013 75.1172 223.836 75.2943 223.658 75.4713C223.481 75.6484 223.284 75.8451 223.106 76.0419C222.909 76.2386 222.712 76.4353 222.495 76.6517C222.397 76.7501 222.279 76.8681 222.18 76.9665C222.062 77.0649 221.944 77.1829 221.825 77.2813C221.352 77.7141 220.84 78.1469 220.308 78.6191C219.756 79.0716 219.165 79.524 218.554 79.9962C218.258 80.2519 217.923 80.4684 217.588 80.6848C217.253 80.9208 216.918 81.1372 216.563 81.393C216.386 81.511 216.209 81.6291 216.031 81.7471C215.854 81.8652 215.657 81.9635 215.479 82.0816C215.105 82.298 214.731 82.534 214.336 82.7505C214.139 82.8685 213.962 82.9865 213.745 83.0849C213.548 83.1833 213.331 83.3013 213.134 83.3997C212.72 83.6161 212.306 83.8128 211.893 84.0292L211.577 84.1866C211.479 84.2456 211.36 84.285 211.242 84.3243C211.025 84.4227 210.809 84.521 210.592 84.6194C210.158 84.8161 209.705 85.0129 209.252 85.2096C208.798 85.3867 208.325 85.544 207.853 85.7211C207.616 85.7998 207.38 85.8982 207.143 85.9769C206.907 86.0556 206.67 86.1539 206.414 86.2129C205.921 86.3507 205.428 86.4884 204.936 86.6458C204.68 86.7244 204.443 86.7835 204.187 86.8622C203.931 86.9212 203.674 86.9802 203.418 87.0392C202.906 87.1573 202.393 87.2556 201.861 87.3737C201.605 87.4327 201.329 87.472 201.073 87.5114C200.817 87.5507 200.541 87.5901 200.285 87.6294C200.028 87.6688 199.753 87.7081 199.477 87.7475C199.22 87.7868 198.945 87.8262 198.669 87.8458C198.137 87.8852 197.585 87.9442 197.053 87.9835C196.777 88.0032 196.501 88.0229 196.245 88.0426C195.969 88.0426 195.693 88.0426 195.417 88.0622C194.865 88.0622 194.313 88.0819 193.781 88.0819C193.229 88.0622 192.677 88.0426 192.145 88.0032L191.318 87.9639C191.18 87.9639 191.042 87.9442 190.904 87.9442L190.49 87.9048C186.115 87.472 181.818 86.3113 177.975 84.6194C174.132 82.9078 170.782 80.6454 168.082 78.3043C165.382 75.9632 163.313 73.5434 161.815 71.4777C160.357 69.3923 159.391 67.7201 158.878 66.7364C159.075 66.1856 159.273 65.6544 159.47 65.1232L159.785 64.3363C159.884 64.0805 160.002 63.8248 160.12 63.569C160.593 62.546 161.086 61.5624 161.598 60.618C162.662 60.9525 163.707 61.2279 164.712 61.464C164.968 61.523 165.224 61.582 165.5 61.6214L166.289 61.7591C166.86 61.7394 167.373 61.8181 167.885 61.8968Z" fill="#055191"/>
<path d="M90.6892 32.1705C90.6892 32.9771 90.5315 33.646 90.2359 34.1771C89.9206 34.7673 89.487 35.0624 88.9352 35.0624C88.5805 35.0624 88.2257 34.9247 87.8315 34.6493C87.26 35.5739 86.6688 36.0461 86.0775 36.0461C85.1513 36.0461 84.698 35.4559 84.698 34.2952C84.698 33.882 84.8557 33.2918 85.1513 32.5246L85.506 32.3869C85.506 32.4852 85.4863 32.623 85.4666 32.8197C85.4469 33.0164 85.4272 33.1541 85.4272 33.2722C85.4272 33.9017 85.6243 34.2165 86.0184 34.2165C86.6885 34.2165 87.2403 33.3705 87.6542 31.6786L88.0089 31.5606C88.206 32.5639 88.4819 33.0754 88.8761 33.0754C89.6644 33.0754 90.098 32.3278 90.1571 30.8327L90.5118 30.7343C90.6301 31.4032 90.6892 31.8754 90.6892 32.1705Z" fill="#055191"/>
<path d="M133.021 30.7743C133.021 31.3251 132.883 31.7186 132.588 31.9744C132.292 32.2301 131.622 32.5646 130.597 32.958L125.454 35.3188C125.454 34.7483 125.69 34.3155 126.143 33.981C126.439 33.745 133.021 30.7743 133.021 30.7743Z" fill="#055191"/>
<path d="M197.092 26.6425C197.092 26.7999 197.072 26.9966 197.033 27.213L196.974 27.7245L196.875 27.7639L195.594 26.9966C194.155 28.6098 193.111 29.4164 192.441 29.4164H191.396V29.3181C192.106 28.9049 192.736 28.4721 193.308 28C193.879 27.5475 194.392 27.0753 194.865 26.5835C194.136 26.0326 193.761 25.4818 193.761 24.9703C193.761 24.7735 193.801 24.5375 193.86 24.3014C193.919 24.0456 194.037 23.7702 194.214 23.4554C194.431 23.0423 194.687 22.7472 194.944 22.5505C195.22 22.3537 195.495 22.2554 195.771 22.2554C195.909 22.2554 196.047 22.2947 196.185 22.3734C196.323 22.4521 196.441 22.5701 196.54 22.7079C196.639 22.8456 196.717 23.0226 196.796 23.1997C196.855 23.3964 196.895 23.5931 196.895 23.7899C196.895 24.026 196.855 24.3211 196.757 24.6555C196.678 24.99 196.54 25.3244 196.343 25.6785C196.836 25.9539 197.092 26.2884 197.092 26.6425ZM195.831 24.8326C195.831 24.6948 195.811 24.5571 195.771 24.4194C195.732 24.2817 195.653 24.1637 195.555 24.0456C195.338 23.7899 195.121 23.6718 194.944 23.6718C194.727 23.6718 194.628 23.7505 194.628 23.9079C194.628 24.2424 195.003 24.6949 195.732 25.2654C195.791 25.0883 195.831 24.9506 195.831 24.8326Z" fill="#055191"/>
<path d="M32.3538 91.2497C32.2355 91.2497 32.0976 91.23 31.9793 91.2104C30.7969 90.9939 30.0085 89.8726 30.2253 88.7118L40.099 32.9185C40.2763 31.9545 41.0844 31.2069 42.0698 31.1479C43.0552 31.0692 43.9617 31.6791 44.277 32.6037L51.6281 54.1656H59.1959L64.8718 39.6861C65.2068 38.8205 66.074 38.2696 67.0002 38.309C67.9265 38.3483 68.7345 38.9975 68.971 39.8828L74.2724 58.8675L79.495 40.9452C79.7315 40.1189 80.4607 39.5091 81.3081 39.4107C82.1753 39.3123 83.003 39.7255 83.4366 40.473L88.3636 48.9522L94.1774 31.6004C94.473 30.6954 95.3402 30.1052 96.2861 30.1249C97.2321 30.1446 98.0598 30.7938 98.316 31.6988L104.563 54.1656H127.267C128.055 54.1656 128.765 54.5788 129.139 55.2477L133.593 63.0579L135.781 32.1119C135.86 31.0692 136.687 30.2036 137.732 30.1052C138.796 30.0069 139.762 30.6758 140.038 31.6791L146.167 54.1459L173.364 54.0673C178.665 54.0673 183.829 55.8969 187.908 59.202L187.967 59.261C190.293 61.1496 192.697 63.2743 194.609 66.0286C196.382 63.4907 198.511 61.5431 200.324 60.0479C201.447 59.1233 202.59 58.2183 203.714 57.333C204.305 56.8805 204.877 56.4084 205.468 55.9362C207.399 54.4017 209.39 52.7295 210.907 50.7425C213.095 47.8505 213.863 44.8995 213.233 41.7321C212.385 37.5024 209.114 34.5907 204.896 34.2956C201.782 34.0792 199.358 35.1809 197.447 37.6598C197.21 37.9549 196.993 38.25 196.757 38.5451L196.284 39.1156C195.87 39.6074 195.259 39.8828 194.628 39.8828C193.998 39.8828 193.387 39.6074 192.973 39.1156L192.796 38.8992C192.382 38.427 192.007 37.9155 191.653 37.463C191.455 37.1876 191.258 36.9712 191.081 36.7941C188.026 33.6661 182.883 33.3907 179.375 36.1843C176.064 38.8205 174.921 43.5421 176.576 47.6931C177.01 48.7948 176.477 50.0539 175.354 50.5064C174.251 50.9392 172.989 50.408 172.536 49.2867C170.191 43.3847 171.886 36.6171 176.655 32.8005C181.877 28.6297 189.583 29.0626 194.175 33.7645C194.333 33.9218 194.471 34.0989 194.628 34.276C197.348 31.1676 200.974 29.6921 205.192 29.9872C211.341 30.42 216.268 34.8071 217.49 40.9058C218.357 45.293 217.312 49.5031 214.376 53.3787C212.563 55.7788 210.316 57.6281 208.187 59.3397C207.596 59.8118 207.005 60.284 206.414 60.7562C205.31 61.6218 204.187 62.5071 203.103 63.4121C199.851 66.1073 197.861 68.5074 196.639 71.2223C196.304 71.9502 195.594 72.4421 194.786 72.5011C193.978 72.5404 193.209 72.1273 192.796 71.4387C192.618 71.1436 192.441 70.8289 192.283 70.5338C191.948 69.9436 191.633 69.3731 191.278 68.8615C189.642 66.4024 187.415 64.4351 185.228 62.6645L185.169 62.6251C181.858 59.9299 177.66 58.4544 173.364 58.4544L144.511 58.5331C143.526 58.5331 142.678 57.8839 142.422 56.9395L139.21 45.1749L137.416 70.5338C137.357 71.4781 136.668 72.2847 135.741 72.5011C134.815 72.7175 133.849 72.2847 133.376 71.4584L126.006 58.5331H102.908C101.942 58.5331 101.075 57.8839 100.819 56.9592L96.0299 39.7058L90.9453 54.8935C90.6694 55.7001 89.9599 56.2707 89.1125 56.369C88.265 56.4477 87.4373 56.0346 87.0234 55.3067L82.2344 47.0636L76.3023 67.4451C76.0264 68.3697 75.179 68.9992 74.2133 68.9992C74.2133 68.9992 74.2133 68.9992 74.1936 68.9992C73.2279 68.9992 72.3805 68.35 72.1243 67.4254L66.5272 47.3587L62.6842 57.1756C62.3689 58.0019 61.5609 58.5528 60.674 58.5528H50.0712C49.1449 58.5528 48.3172 57.9626 48.0215 57.0773L42.8975 42.0272L34.4822 89.4398C34.2851 90.5021 33.3786 91.2497 32.3538 91.2497Z" fill="#B7860F"/>
<path d="M113.018 67.8581C114.814 67.8581 116.27 66.4048 116.27 64.6121C116.27 62.8193 114.814 61.366 113.018 61.366C111.222 61.366 109.766 62.8193 109.766 64.6121C109.766 66.4048 111.222 67.8581 113.018 67.8581Z" fill="#055191"/>
<path d="M121.315 67.8581C123.111 67.8581 124.567 66.4048 124.567 64.6121C124.567 62.8193 123.111 61.366 121.315 61.366C119.519 61.366 118.063 62.8193 118.063 64.6121C118.063 66.4048 119.519 67.8581 121.315 67.8581Z" fill="#055191"/>
<path d="M67.4084 73.9822C67.4084 72.5865 68.4071 71.1623 69.8624 71.1623C70.1905 71.1623 70.4616 71.2193 70.7612 71.3617V73.8113H71.3176V74.4665H67.437C67.4084 74.3098 67.4084 74.1389 67.4084 73.9822ZM68.1075 73.8256H70.1192V71.8602C68.9208 71.7747 68.1218 72.6435 68.1075 73.8256ZM69.149 70.379C69.149 70.5926 68.9921 70.735 68.7781 70.735C68.5784 70.735 68.4071 70.5784 68.4071 70.379C68.4071 70.1796 68.5784 70.0229 68.7781 70.0229C68.9921 70.0087 69.149 70.1796 69.149 70.379ZM70.0907 70.379C70.0907 70.5926 69.9337 70.735 69.734 70.735C69.5342 70.735 69.3773 70.5784 69.3773 70.379C69.3773 70.1796 69.5485 70.0229 69.734 70.0229C69.9337 70.0087 70.0907 70.1796 70.0907 70.379Z" fill="#055191"/>
<path d="M71.2036 74.4807V73.8256H72.4877V74.4807H71.2036Z" fill="#055191"/>
<path d="M72.3877 74.4807V73.8256H73.6717V74.4807H72.3877Z" fill="#055191"/>
<path d="M73.5718 74.4807V73.8256H74.8558V74.4807H73.5718Z" fill="#055191"/>
<path d="M74.7561 74.4807V73.8256H76.0401V74.4807H74.7561Z" fill="#055191"/>
<path d="M75.9543 74.4807V73.8256H77.2384V74.4807H75.9543Z" fill="#055191"/>
<path d="M79.7781 74.4807H77.1387V73.8256H78.4655V71.2477H79.1075V73.8256H79.7781V74.4807ZM78.6938 75.3495C78.6938 75.5631 78.5368 75.7055 78.3371 75.7055C78.1374 75.7055 77.9804 75.5488 77.9804 75.3495C77.9804 75.1501 78.1516 74.9934 78.3371 74.9934C78.5368 74.9934 78.6938 75.1643 78.6938 75.3495ZM79.6212 75.3495C79.6212 75.5631 79.4642 75.7055 79.2645 75.7055C79.0647 75.7055 78.9078 75.5488 78.9078 75.3495C78.9078 75.1501 79.079 74.9934 79.2645 74.9934C79.4642 74.9934 79.6212 75.1643 79.6212 75.3495Z" fill="#055191"/>
<path d="M82.3032 73.8256V74.4807H79.6638V73.8256H80.9907V71.2477H81.6327V73.8256H82.3032ZM81.6898 75.3495C81.6898 75.5631 81.5328 75.7055 81.3331 75.7055C81.1333 75.7055 80.9764 75.5488 80.9764 75.3495C80.9764 75.1501 81.1476 74.9934 81.3331 74.9934C81.5328 74.9934 81.6898 75.1643 81.6898 75.3495Z" fill="#055191"/>
<path d="M85.8272 71.1481H85.8843C87.3966 71.1481 88.4238 72.3159 88.4381 73.8113H88.9945V74.4665H82.2034V73.8113H83.3019V69.8663H83.9582V72.0168C84.4005 71.4614 85.0568 71.1481 85.8272 71.1481ZM85.8272 71.8032C84.7715 71.8032 83.9012 72.7717 84.001 73.8256H87.7105C87.8103 72.7574 86.883 71.8032 85.8272 71.8032Z" fill="#055191"/>
<path d="M88.8948 74.4807V73.8256H89.9933V69.8663H90.6496V74.4665L88.8948 74.4807Z" fill="#055191"/>
<path d="M91.6912 74.4807V69.8805H92.3332V74.4807H91.6912Z" fill="#055191"/>
<path d="M95.5146 72.8286C95.5146 73.3413 95.9141 73.8113 96.4705 73.8113H100.109V71.2335H100.751V74.4664H96.4705C95.5288 74.4664 94.8726 73.7258 94.8726 72.8001C94.8726 71.9313 95.4575 71.2905 96.3135 71.205V71.8459C95.8427 71.9456 95.5146 72.3871 95.5146 72.8286ZM97.94 71.5183C97.94 71.732 97.7831 71.8744 97.5833 71.8744C97.3836 71.8744 97.2266 71.7177 97.2266 71.5183C97.2266 71.3189 97.3978 71.1623 97.5833 71.1623C97.7831 71.148 97.94 71.3189 97.94 71.5183ZM98.8674 71.5183C98.8674 71.732 98.7104 71.8744 98.5107 71.8744C98.3109 71.8744 98.154 71.7177 98.154 71.5183C98.154 71.3189 98.3252 71.1623 98.5107 71.1623C98.7104 71.148 98.8674 71.3189 98.8674 71.5183Z" fill="#055191"/>
<path d="M103.091 73.8255V74.4807H101.792V69.8805H102.434V73.8255H103.091Z" fill="#055191"/>
<path d="M102.991 74.4807V73.8256H104.275V74.4807H102.991Z" fill="#055191"/>
<path d="M104.175 74.4807V73.8256H105.459V74.4807H104.175Z" fill="#055191"/>
<path d="M105.359 74.4807V73.8256H106.643V74.4807H105.359Z" fill="#055191"/>
<path d="M106.543 74.4807V73.8256H107.827V74.4807H106.543Z" fill="#055191"/>
<path d="M107.727 74.4807V73.8256H109.011V74.4807H107.727Z" fill="#055191"/>
<path d="M110.024 72.8429C110.024 72.0026 110.766 71.205 111.665 71.205C112.521 71.205 113.263 71.9598 113.263 72.8429C113.263 73.7259 112.521 74.4664 111.665 74.4664H108.897V73.8113H110.338C110.11 73.4837 110.024 73.1704 110.024 72.8429ZM110.681 72.8286C110.681 73.2844 111.066 73.7971 111.637 73.7971C112.207 73.7971 112.635 73.3271 112.635 72.8286C112.635 72.3159 112.179 71.8459 111.622 71.8459C111.066 71.8459 110.681 72.3444 110.681 72.8286Z" fill="#055191"/>
<path d="M115.46 71.148C116.63 71.148 117.614 71.9598 117.8 73.8255H118.342V74.4807H114.304V73.8255H117.129C117.087 72.4013 116.245 71.8174 115.332 71.8174C115.075 71.8174 114.804 71.8601 114.547 71.9313V71.3047C114.861 71.1907 115.146 71.148 115.46 71.148Z" fill="#055191"/>
<path d="M120.867 71.0056C121.467 71.0056 121.994 71.205 122.494 71.7035C123.05 72.2731 123.336 73.0137 123.393 73.8255H123.935V74.4807H118.242V73.8255H122.765C122.708 73.1989 122.508 72.615 122.052 72.1592C121.709 71.8174 121.281 71.6465 120.867 71.6465C120.496 71.6465 120.125 71.7747 119.812 71.9883L119.412 71.4756C119.869 71.1623 120.354 71.0056 120.867 71.0056ZM121.31 70.1653C121.31 70.3789 121.153 70.5214 120.953 70.5214C120.753 70.5214 120.596 70.3647 120.596 70.1653C120.596 69.9659 120.767 69.8093 120.953 69.8093C121.153 69.8093 121.31 69.9659 121.31 70.1653Z" fill="#055191"/>
<path d="M126.118 73.8255V74.4807H123.821V73.8255H124.919V69.852H125.561V73.8255H126.118Z" fill="#055191"/>
<path d="M126.018 74.4807V73.8256H127.116V69.8663H127.773V74.4665L126.018 74.4807Z" fill="#055191"/>
<path d="M131.554 73.8256H132.139V74.4807H131.397C131.154 75.1216 130.84 75.6913 130.341 76.204L129.784 75.7767C130.983 74.324 131.211 72.7147 130.555 71.2477H131.311C131.682 72.1877 131.696 73.1704 131.554 73.8256Z" fill="#055191"/>
<path d="M132.039 74.4807V73.8256H133.323V74.4807H132.039Z" fill="#055191"/>
<path d="M133.223 74.4807V73.8256H134.507V74.4807H133.223Z" fill="#055191"/>
<path d="M134.407 74.4807V73.8256H135.691V74.4807H134.407Z" fill="#055191"/>
<path d="M135.591 74.4807V73.8256H136.875V74.4807H135.591Z" fill="#055191"/>
<path d="M136.775 74.4807V73.8256H138.059V74.4807H136.775Z" fill="#055191"/>
<path d="M144.351 73.8256V74.4807H143.909C143.766 74.4807 143.638 74.4237 143.41 74.2101C143.138 74.4522 142.81 74.5946 142.468 74.5946C142.026 74.5946 141.74 74.4237 141.441 74.1246C141.184 74.438 140.884 74.5946 140.428 74.5946C140.071 74.5946 139.8 74.4664 139.529 74.2101C139.343 74.4095 139.201 74.4807 138.972 74.4807H137.959V73.8256H139.072V71.2477H139.743V73.1989C139.743 73.5834 140.042 73.8968 140.413 73.8968C140.799 73.8968 141.113 73.5834 141.113 73.1989V71.2477H141.769V73.1989C141.769 73.555 142.097 73.8968 142.468 73.8968C142.839 73.8968 143.167 73.5977 143.167 73.1989V71.2477H143.809V73.8256H144.351Z" fill="#055191"/>
<path d="M146.891 74.4807H144.251V73.8256H145.578V71.2477H146.22V73.8256H146.891V74.4807ZM145.806 75.3495C145.806 75.5631 145.649 75.7055 145.45 75.7055C145.25 75.7055 145.093 75.5488 145.093 75.3495C145.093 75.1501 145.264 74.9934 145.45 74.9934C145.649 74.9934 145.806 75.1643 145.806 75.3495ZM146.748 75.3495C146.748 75.5631 146.591 75.7055 146.391 75.7055C146.192 75.7055 146.035 75.5488 146.035 75.3495C146.035 75.1501 146.206 74.9934 146.391 74.9934C146.591 74.9934 146.748 75.1643 146.748 75.3495Z" fill="#055191"/>
<path d="M148.76 69.6241C148.76 69.1826 149.102 68.8408 149.544 68.8408C149.987 68.8408 150.329 69.1969 150.329 69.6241C150.329 69.9659 150.115 70.2508 149.801 70.3647V70.379L148.731 70.9059L148.56 70.6068L149.159 70.322C148.902 70.1653 148.76 69.9232 148.76 69.6241ZM149.073 69.5956C149.073 69.852 149.287 70.0514 149.53 70.0514C149.787 70.0514 149.987 69.8378 149.987 69.5956C149.987 69.3535 149.773 69.1399 149.53 69.1399C149.287 69.1399 149.073 69.3535 149.073 69.5956Z" fill="#055191"/>
<path d="M147.904 72.8429C147.904 72.0026 148.646 71.205 149.544 71.205C150.4 71.205 151.142 71.9598 151.142 72.8429C151.142 73.7259 150.4 74.4664 149.544 74.4664H146.777V73.8113H148.232C147.989 73.4837 147.904 73.1704 147.904 72.8429ZM148.56 72.8286C148.56 73.2844 148.945 73.7971 149.516 73.7971C150.087 73.7971 150.515 73.3271 150.515 72.8286C150.515 72.3159 150.058 71.8459 149.502 71.8459C148.945 71.8459 148.56 72.3444 148.56 72.8286Z" fill="#055191"/>
</svg>
